<svg xmlns="http://www.w3.org/2000/svg" viewBox="0 0 900 400">
  <rect width="900" height="400" fill="#2D1B0E"/>
  <!-- floor -->
  <rect y="340" width="900" height="60" fill="#1A0F06"/>
  <line x1="0" y1="340" x2="900" y2="340" stroke="#3D2B1E" stroke-width="1"/>
  <!-- left bookshelf -->
  <rect x="30" y="40" width="180" height="300" rx="4" fill="#3D2B1E" stroke="#4A3728" stroke-width="2"/>
  <!-- shelves left -->
  <line x1="30" y1="100" x2="210" y2="100" stroke="#4A3728" stroke-width="3"/>
  <line x1="30" y1="160" x2="210" y2="160" stroke="#4A3728" stroke-width="3"/>
  <line x1="30" y1="220" x2="210" y2="220" stroke="#4A3728" stroke-width="3"/>
  <line x1="30" y1="280" x2="210" y2="280" stroke="#4A3728" stroke-width="3"/>
  <!-- books row 1 left -->
  <rect x="40" y="50" width="12" height="46" rx="1" fill="#8B2500"/>
  <rect x="56" y="54" width="10" height="42" rx="1" fill="#4682B4"/>
  <rect x="70" y="48" width="14" height="48" rx="1" fill="#2E8B57"/>
  <rect x="88" y="52" width="10" height="44" rx="1" fill="#DAA520"/>
  <rect x="102" y="50" width="12" height="46" rx="1" fill="#8B008B"/>
  <rect x="118" y="56" width="10" height="40" rx="1" fill="#CD853F"/>
  <rect x="132" y="48" width="14" height="48" rx="1" fill="#B22222"/>
  <rect x="150" y="52" width="10" height="44" rx="1" fill="#6B8E23"/>
  <rect x="164" y="50" width="12" height="46" rx="1" fill="#4169E1"/>
  <rect x="180" y="54" width="14" height="42" rx="1" fill="#8B4513"/>
  <!-- books row 2 left -->
  <rect x="40" y="110" width="14" height="46" rx="1" fill="#A0522D"/>
  <rect x="58" y="114" width="10" height="42" rx="1" fill="#556B2F"/>
  <rect x="72" y="108" width="12" height="48" rx="1" fill="#8B0000"/>
  <rect x="88" y="112" width="14" height="44" rx="1" fill="#483D8B"/>
  <rect x="106" y="108" width="10" height="48" rx="1" fill="#CD853F"/>
  <rect x="120" y="114" width="12" height="42" rx="1" fill="#2F4F4F"/>
  <rect x="136" y="110" width="14" height="46" rx="1" fill="#DAA520"/>
  <rect x="154" y="112" width="10" height="44" rx="1" fill="#8B2500"/>
  <rect x="168" y="108" width="14" height="48" rx="1" fill="#4682B4"/>
  <rect x="186" y="112" width="12" height="44" rx="1" fill="#6B4226"/>
  <!-- books row 3 left -->
  <rect x="42" y="170" width="12" height="46" rx="1" fill="#B8860B"/>
  <rect x="58" y="174" width="14" height="42" rx="1" fill="#8B008B"/>
  <rect x="76" y="168" width="10" height="48" rx="1" fill="#228B22"/>
  <rect x="90" y="172" width="12" height="44" rx="1" fill="#CD5C5C"/>
  <rect x="106" y="170" width="14" height="46" rx="1" fill="#4682B4"/>
  <rect x="124" y="174" width="10" height="42" rx="1" fill="#8B4513"/>
  <rect x="138" y="168" width="12" height="48" rx="1" fill="#6A5ACD"/>
  <rect x="154" y="170" width="14" height="46" rx="1" fill="#2E8B57"/>
  <rect x="172" y="174" width="12" height="42" rx="1" fill="#A0522D"/>
  <rect x="188" y="170" width="10" height="46" rx="1" fill="#B22222"/>
  <!-- right bookshelf -->
  <rect x="690" y="40" width="180" height="300" rx="4" fill="#3D2B1E" stroke="#4A3728" stroke-width="2"/>
  <!-- shelves right -->
  <line x1="690" y1="100" x2="870" y2="100" stroke="#4A3728" stroke-width="3"/>
  <line x1="690" y1="160" x2="870" y2="160" stroke="#4A3728" stroke-width="3"/>
  <line x1="690" y1="220" x2="870" y2="220" stroke="#4A3728" stroke-width="3"/>
  <line x1="690" y1="280" x2="870" y2="280" stroke="#4A3728" stroke-width="3"/>
  <!-- books right shelf rows -->
  <rect x="700" y="50" width="12" height="46" rx="1" fill="#B22222"/>
  <rect x="716" y="54" width="10" height="42" rx="1" fill="#4682B4"/>
  <rect x="730" y="48" width="14" height="48" rx="1" fill="#DAA520"/>
  <rect x="748" y="52" width="10" height="44" rx="1" fill="#2E8B57"/>
  <rect x="762" y="50" width="12" height="46" rx="1" fill="#8B008B"/>
  <rect x="778" y="56" width="14" height="40" rx="1" fill="#CD853F"/>
  <rect x="796" y="50" width="10" height="46" rx="1" fill="#8B2500"/>
  <rect x="810" y="48" width="14" height="48" rx="1" fill="#556B2F"/>
  <rect x="828" y="54" width="12" height="42" rx="1" fill="#4169E1"/>
  <rect x="844" y="50" width="14" height="46" rx="1" fill="#8B4513"/>
  <rect x="700" y="110" width="14" height="46" rx="1" fill="#6A5ACD"/>
  <rect x="718" y="114" width="10" height="42" rx="1" fill="#8B0000"/>
  <rect x="732" y="108" width="12" height="48" rx="1" fill="#B8860B"/>
  <rect x="748" y="112" width="14" height="44" rx="1" fill="#2F4F4F"/>
  <rect x="766" y="110" width="10" height="46" rx="1" fill="#CD5C5C"/>
  <rect x="780" y="114" width="14" height="42" rx="1" fill="#228B22"/>
  <rect x="798" y="108" width="12" height="48" rx="1" fill="#A0522D"/>
  <rect x="814" y="112" width="14" height="44" rx="1" fill="#DAA520"/>
  <rect x="832" y="110" width="10" height="46" rx="1" fill="#8B2500"/>
  <rect x="846" y="108" width="14" height="48" rx="1" fill="#483D8B"/>
  <!-- center reading area -->
  <rect x="350" y="280" width="200" height="60" rx="6" fill="#3D2B1E" opacity="0.6"/>
  <!-- desk -->
  <rect x="370" y="270" width="160" height="10" rx="2" fill="#4A3728"/>
  <!-- lamp on desk -->
  <ellipse cx="450" cy="250" rx="30" ry="6" fill="#FFD700" opacity="0.15"/>
  <rect x="447" y="240" width="6" height="30" fill="#8B7355"/>
  <path d="M435 240 Q450 225 465 240" fill="#DAA520" opacity="0.5"/>
  <!-- ambient warm glow -->
  <ellipse cx="450" cy="260" rx="120" ry="80" fill="#FFD700" opacity="0.03"/>
</svg>
