<svg xmlns="http://www.w3.org/2000/svg" viewBox="0 0 900 400">
  <rect width="900" height="400" fill="#0A0A1A"/>
  <!-- subtle nebula glow -->
  <ellipse cx="700" cy="100" rx="200" ry="120" fill="#1A0A2E" opacity="0.4"/>
  <ellipse cx="200" cy="300" rx="180" ry="100" fill="#0A1A2E" opacity="0.3"/>
  <!-- stars - bright -->
  <circle cx="50" cy="30" r="2" fill="#FFFFFF"/>
  <circle cx="150" cy="80" r="1.5" fill="#FFFFFF"/>
  <circle cx="200" cy="20" r="1" fill="#FFFFFF"/>
  <circle cx="300" cy="60" r="2" fill="#FFFFFF"/>
  <circle cx="350" cy="150" r="1.5" fill="#FFFFFF"/>
  <circle cx="420" cy="30" r="1" fill="#FFFFFF"/>
  <circle cx="500" cy="90" r="2" fill="#FFFFFF"/>
  <circle cx="580" cy="40" r="1.5" fill="#FFFFFF"/>
  <circle cx="650" cy="120" r="1" fill="#FFFFFF"/>
  <circle cx="750" cy="50" r="2" fill="#FFFFFF"/>
  <circle cx="830" cy="100" r="1.5" fill="#FFFFFF"/>
  <circle cx="870" cy="30" r="1" fill="#FFFFFF"/>
  <!-- stars - medium -->
  <circle cx="80" cy="180" r="1" fill="#FFFFFF" opacity="0.8"/>
  <circle cx="130" cy="250" r="1.5" fill="#FFFFFF" opacity="0.8"/>
  <circle cx="240" cy="180" r="1" fill="#FFFFFF" opacity="0.8"/>
  <circle cx="320" cy="300" r="1.5" fill="#FFFFFF" opacity="0.8"/>
  <circle cx="400" cy="200" r="1" fill="#FFFFFF" opacity="0.8"/>
  <circle cx="480" cy="320" r="1.5" fill="#FFFFFF" opacity="0.8"/>
  <circle cx="560" cy="250" r="1" fill="#FFFFFF" opacity="0.8"/>
  <circle cx="620" cy="350" r="1.5" fill="#FFFFFF" opacity="0.8"/>
  <circle cx="700" cy="280" r="1" fill="#FFFFFF" opacity="0.8"/>
  <circle cx="780" cy="200" r="1.5" fill="#FFFFFF" opacity="0.8"/>
  <circle cx="860" cy="320" r="1" fill="#FFFFFF" opacity="0.8"/>
  <!-- stars - dim -->
  <circle cx="30" cy="120" r="0.8" fill="#FFFFFF" opacity="0.5"/>
  <circle cx="110" cy="350" r="0.8" fill="#FFFFFF" opacity="0.5"/>
  <circle cx="170" cy="140" r="0.8" fill="#FFFFFF" opacity="0.5"/>
  <circle cx="260" cy="380" r="0.8" fill="#FFFFFF" opacity="0.5"/>
  <circle cx="340" cy="230" r="0.8" fill="#FFFFFF" opacity="0.5"/>
  <circle cx="430" cy="370" r="0.8" fill="#FFFFFF" opacity="0.5"/>
  <circle cx="510" cy="170" r="0.8" fill="#FFFFFF" opacity="0.5"/>
  <circle cx="550" cy="380" r="0.8" fill="#FFFFFF" opacity="0.5"/>
  <circle cx="670" cy="190" r="0.8" fill="#FFFFFF" opacity="0.5"/>
  <circle cx="730" cy="370" r="0.8" fill="#FFFFFF" opacity="0.5"/>
  <circle cx="810" cy="250" r="0.8" fill="#FFFFFF" opacity="0.5"/>
  <circle cx="880" cy="180" r="0.8" fill="#FFFFFF" opacity="0.5"/>
  <!-- stars - tiny -->
  <circle cx="60" cy="290" r="0.5" fill="#FFFFFF" opacity="0.4"/>
  <circle cx="190" cy="310" r="0.5" fill="#FFFFFF" opacity="0.4"/>
  <circle cx="280" cy="120" r="0.5" fill="#FFFFFF" opacity="0.4"/>
  <circle cx="370" cy="80" r="0.5" fill="#FFFFFF" opacity="0.4"/>
  <circle cx="460" cy="260" r="0.5" fill="#FFFFFF" opacity="0.4"/>
  <circle cx="540" cy="130" r="0.5" fill="#FFFFFF" opacity="0.4"/>
  <circle cx="640" cy="60" r="0.5" fill="#FFFFFF" opacity="0.4"/>
  <circle cx="720" cy="160" r="0.5" fill="#FFFFFF" opacity="0.4"/>
  <circle cx="800" cy="350" r="0.5" fill="#FFFFFF" opacity="0.4"/>
  <circle cx="850" cy="230" r="0.5" fill="#FFFFFF" opacity="0.4"/>
  <!-- bright star with glow -->
  <circle cx="450" cy="80" r="3" fill="#FFFFFF"/>
  <circle cx="450" cy="80" r="6" fill="#FFFFFF" opacity="0.15"/>
  <circle cx="750" cy="300" r="2.5" fill="#FFFFFF"/>
  <circle cx="750" cy="300" r="5" fill="#FFFFFF" opacity="0.1"/>
  <!-- platform / ground line -->
  <rect y="370" width="900" height="30" fill="#12122A" opacity="0.6"/>
  <line x1="0" y1="370" x2="900" y2="370" stroke="#1A1A3A" stroke-width="1"/>
</svg>
